{
	"asset":{
		"generator":"Khronos glTF Blender I/O v3.5.30",
		"version":"2.0"
	},
	"scene":0,
	"scenes":[
		{
			"name":"Scene",
			"nodes":[
				0
			]
		}
	],
	"nodes":[
		{
			"mesh":0,
			"name":"Retopo_Curve.002",
			"translation":[
				0.0008034144411794841,
				0.003517016302794218,
				-0.002301221014931798
			]
		}
	],
	"materials":[
		{
			"doubleSided":true,
			"name":"Material.002",
			"pbrMetallicRoughness":{
				"baseColorFactor":[
					0.800000011920929,
					0.800000011920929,
					0.800000011920929,
					1
				],
				"metallicFactor":0,
				"roughnessFactor":0.22363635897636414
			}
		}
	],
	"meshes":[
		{
			"name":"mesh.002",
			"primitives":[
				{
					"attributes":{
						"POSITION":0,
						"NORMAL":1
					},
					"indices":2,
					"material":0
				}
			]
		}
	],
	"accessors":[
		{
			"bufferView":0,
			"componentType":5126,
			"count":2846,
			"max":[
				0.02034604176878929,
				0.003945940639823675,
				0.024303032085299492
			],
			"min":[
				-0.02040790021419525,
				-0.003945940639823675,
				-0.03556304797530174
			],
			"type":"VEC3"
		},
		{
			"bufferView":1,
			"componentType":5126,
			"count":2846,
			"type":"VEC3"
		},
		{
			"bufferView":2,
			"componentType":5123,
			"count":16956,
			"type":"SCALAR"
		}
	],
	"bufferViews":[
		{
			"buffer":0,
			"byteLength":34152,
			"byteOffset":0,
			"target":34962
		},
		{
			"buffer":0,
			"byteLength":34152,
			"byteOffset":34152,
			"target":34962
		},
		{
			"buffer":0,
			"byteLength":33912,
			"byteOffset":68304,
			"target":34963
		}
	],
	"buffers":[
		{
			"byteLength":102216,
			"uri":"data:application/octet-stream;base64,"
		}
	]
}
